<svg xmlns="http://www.w3.org/2000/svg" width="191" height="62" viewBox="0 0 191 62" fill="none">
  <path d="M26.1742 9.79994C23.5422 9.79734 20.925 10.1923 18.4116 10.9713L40.3457 30.6457L20.7336 34.1486L21.1075 34.9655L25.0524 33.4472L21.3132 43.1016L12.0362 38.4236L16.0783 36.8792L15.7979 36.0399L1.63379 44.7952C3.27174 49.273 6.10926 53.2168 9.8376 56.1975C13.5659 59.1782 18.0423 61.0817 22.7796 61.7009C27.5168 62.3201 32.3336 61.6312 36.7057 59.7092C41.0779 57.7872 44.838 54.7058 47.5768 50.8001C50.3156 46.8945 51.9283 42.3142 52.2394 37.5578C52.5505 32.8013 51.5481 28.0508 49.3412 23.8232C47.1343 19.5956 43.8076 16.0528 39.7228 13.5802C35.6381 11.1077 30.9519 9.80019 26.1742 9.79994ZM45.1768 50.0552C40.8131 55.1845 33.1104 55.774 27.797 51.6332C25.718 50.0141 23.5642 47.6901 22.5621 44.5789C23.7469 46.8629 25.5234 48.7885 27.7068 50.1556C29.8902 51.5227 32.4008 52.2812 34.9776 52.3524C37.5544 52.4236 40.1033 51.8049 42.3592 50.5605C44.6151 49.3161 46.4957 47.4915 47.8054 45.2765C47.3195 46.8821 46.5342 48.3819 45.4909 49.6971C45.3787 49.8202 45.2815 49.9395 45.1805 50.0552H45.1768Z" fill="white"/>
  <path d="M14.7811 35.5773L4.78992 0L0 44.7131L14.7811 35.5773Z" fill="white"/>
  <path d="M38.3045 30.0674L4.79004 0L21.1939 33.1264L38.3045 30.0674Z" fill="white"/>
  <path d="M4.79004 0L17.2491 37.4313L14.3325 38.5467L20.805 41.8071L23.4374 35.0662L20.5956 36.1517L4.79004 0Z" fill="white"/>
  <path d="M90.3243 33.7045H72.335V19.8011H67.9639V51.883H72.335V37.6252H90.3243V51.883H94.6954V19.8011H90.3243V33.7045Z" fill="white"/>
  <path d="M115.541 31.8058L114.565 31.388C113.67 30.8966 112.731 30.4883 111.761 30.1682C110.849 29.8368 109.886 29.664 108.915 29.6571C107.422 29.6258 105.94 29.9135 104.567 30.501C103.195 31.0884 101.964 31.962 100.958 33.063C98.9466 35.2528 97.9258 38.0991 97.9258 41.5162C97.9258 44.6199 98.9354 47.22 100.917 49.2307C102.899 51.2414 105.442 52.2785 108.526 52.2785C109.766 52.28 110.999 52.1093 112.191 51.7712C112.61 51.6423 113.018 51.4788 113.41 51.2825L113.84 51.0736V51.9689H117.99L117.945 33.0518L115.541 31.8058ZM113.873 35.2863V46.7463C113.612 46.8992 113.339 47.0783 113.058 47.276C112.734 47.503 112.381 47.685 112.008 47.8169C111.002 48.1763 109.938 48.3446 108.87 48.313C107.93 48.3321 106.994 48.1713 106.115 47.8393C105.32 47.5169 104.6 47.0358 103.998 46.4254C102.802 45.2317 102.192 43.5642 102.192 41.4714C102.192 39.2331 102.891 37.3679 104.279 35.9317C104.919 35.2146 105.71 34.6475 106.596 34.2709C107.481 33.8943 108.439 33.7175 109.401 33.7531C110.412 33.7416 111.414 33.9345 112.348 34.3201C112.685 34.4656 113.003 34.6496 113.298 34.8685C113.522 35.0289 113.709 35.167 113.873 35.2863Z" fill="white"/>
  <path d="M130.348 29.657C129.895 29.6582 129.442 29.6969 128.995 29.7726C128.527 29.8513 128.065 29.9661 127.615 30.1158C127.128 30.2568 126.649 30.4237 126.179 30.6157C125.749 30.7948 125.368 30.9589 125.057 31.1044L121.524 33.2009V61.9999H125.674V51.2973L126.161 51.495C126.542 51.6514 126.936 51.7762 127.338 51.8681C128.472 52.1557 129.639 52.2949 130.808 52.2821C133.725 52.2821 136.26 51.1182 138.339 48.8315C140.371 46.7114 141.492 43.8824 141.461 40.949C141.461 37.67 140.411 34.9393 138.332 32.8353C136.253 30.7313 133.553 29.657 130.348 29.657ZM137.079 40.9901C137.113 41.9398 136.958 42.8869 136.624 43.7767C136.289 44.6666 135.782 45.4818 135.131 46.1754C133.889 47.5258 132.24 48.1786 130.094 48.1786C129.57 48.1822 129.046 48.1335 128.531 48.0332C128.076 47.9461 127.626 47.8302 127.185 47.6862C126.811 47.5407 126.482 47.4102 126.161 47.3132C125.99 47.2581 125.823 47.1895 125.663 47.108V35.0102C125.784 34.948 125.909 34.8931 126.037 34.846C126.321 34.7416 126.647 34.6147 126.983 34.473C127.394 34.3275 127.843 34.1671 128.329 33.988C128.81 33.8239 129.317 33.7443 129.825 33.753C130.79 33.7242 131.751 33.8976 132.645 34.2619C133.539 34.6262 134.346 35.1734 135.015 35.8682C136.398 37.1962 137.072 38.8712 137.072 40.9901H137.079Z" fill="white"/>
  <path d="M151.438 29.657C150.984 29.6582 150.531 29.6969 150.084 29.7726C149.616 29.8513 149.155 29.9661 148.704 30.1158C148.217 30.2568 147.738 30.4237 147.268 30.6157C146.838 30.7948 146.457 30.9589 146.147 31.1044L142.587 33.2009V61.9999H146.737V51.2973L147.224 51.495C147.605 51.6514 147.999 51.7762 148.401 51.8681C149.535 52.1557 150.702 52.2949 151.871 52.2821C154.788 52.2821 157.323 51.1182 159.402 48.8315C161.434 46.7114 162.555 43.8824 162.524 40.949C162.524 37.67 161.47 34.9393 159.391 32.8353C157.312 30.7313 154.631 29.657 151.438 29.657ZM158.168 40.9901C158.201 41.9397 158.046 42.8865 157.712 43.7763C157.377 44.6661 156.871 45.4813 156.22 46.1754C154.975 47.5258 153.33 48.1786 151.18 48.1786C150.655 48.1818 150.132 48.1331 149.617 48.0332C149.162 47.9456 148.714 47.8298 148.274 47.6862C147.9 47.5407 147.571 47.4102 147.25 47.3132C147.078 47.2588 146.912 47.1902 146.752 47.108V35.0102C146.874 34.948 146.998 34.8931 147.126 34.846C147.41 34.7416 147.732 34.6147 148.069 34.473C148.484 34.3275 148.932 34.1671 149.418 33.988C149.9 33.8236 150.406 33.744 150.914 33.753C151.879 33.7242 152.84 33.8976 153.734 34.2619C154.628 34.6262 155.435 35.1734 156.104 35.8682C157.48 37.1962 158.168 38.8712 158.168 40.9901Z" fill="white"/>
  <path d="M163.975 25.4863L168.126 25.4304V19.8011H163.975V25.4863Z" fill="white"/>
  <path d="M168.126 30.0525H163.975V51.8831H168.126V30.0525Z" fill="white"/>
  <path d="M185.816 41.2327H190V40.7701C190.032 39.2018 189.799 37.6394 189.312 36.1481C188.87 34.8793 188.178 33.7112 187.278 32.7123C186.387 31.7187 185.29 30.9306 184.063 30.403C182.836 29.8753 181.509 29.6208 180.173 29.6571C178.786 29.626 177.41 29.9043 176.145 30.4716C174.879 31.0389 173.757 31.8809 172.859 32.9361C170.99 35.0065 170.051 37.6141 170.051 40.6806C170.051 43.9857 171.102 46.7873 173.181 49.0144C175.29 51.178 178.001 52.2785 181.231 52.2785C182.91 52.2898 184.57 51.9305 186.092 51.2265C186.703 50.9696 187.292 50.6639 187.854 50.3126C188.373 49.988 188.897 49.6224 189.409 49.2345L189.592 49.0964V43.8738L188.83 44.6087C188.236 45.1592 187.612 45.676 186.96 46.1568C186.411 46.5495 185.838 46.9071 185.244 47.2275C184.071 47.8712 182.75 48.199 181.411 48.1787C180.447 48.195 179.49 48.0134 178.599 47.6453C177.753 47.2765 176.98 46.7584 176.318 46.1158C175.076 44.9174 174.349 43.2841 174.292 41.5609V41.2327H185.816ZM175.297 36.8643C175.469 36.4637 175.693 36.0875 175.963 35.7452C176.463 35.0971 177.111 34.5779 177.853 34.2313C178.596 33.8847 179.41 33.7207 180.229 33.7531C180.922 33.7372 181.611 33.8524 182.26 34.0926C182.795 34.3052 183.282 34.6223 183.692 35.0252C184.084 35.4274 184.395 35.901 184.608 36.4204C184.788 36.8378 184.937 37.268 185.053 37.7074H174.957C175.062 37.4276 175.174 37.1441 175.297 36.8643Z" fill="white"/>
</svg>