<svg width="153" height="49" viewBox="0 0 153 49" fill="none" xmlns="http://www.w3.org/2000/svg">
<g clip-path="url(#clip0_972_132)">
<path d="M21.0774 7.74513C18.958 7.74307 16.8504 8.05519 14.8265 8.67088L32.4892 24.22L16.6963 26.9884L16.9974 27.6341L20.1741 26.4341L17.163 34.0642L9.69263 30.3671L12.9476 29.1465L12.7217 28.4832L1.31592 35.4027C2.6349 38.9416 4.91985 42.0584 7.92214 44.4142C10.9244 46.7699 14.5291 48.2743 18.3438 48.7636C22.1586 49.253 26.0374 48.7085 29.5581 47.1896C33.0788 45.6706 36.1066 43.2352 38.3121 40.1485C40.5176 37.0618 41.8162 33.4419 42.0668 29.6828C42.3173 25.9236 41.5101 22.1692 39.733 18.828C37.9558 15.4868 35.2769 12.6869 31.9876 10.7328C28.6984 8.77869 24.9247 7.74532 21.0774 7.74513ZM36.3795 39.5597C32.8656 43.6136 26.6629 44.0794 22.3842 40.8069C20.71 39.5273 18.9757 37.6906 18.1687 35.2317C19.1228 37.0368 20.5533 38.5587 22.3116 39.6391C24.0698 40.7195 26.0915 41.319 28.1665 41.3753C30.2415 41.4316 32.294 40.9426 34.1106 39.9591C35.9272 38.9757 37.4416 37.5336 38.4962 35.783C38.1049 37.052 37.4726 38.2373 36.6324 39.2767C36.5421 39.374 36.4638 39.4684 36.3825 39.5597H36.3795Z" fill="url(#paint0_radial_972_132)"/>
<path d="M11.9026 28.1175L3.85714 0L0 35.3378L11.9026 28.1175Z" fill="#024EB0"/>
<path d="M30.8451 23.7629L3.85718 0L17.0666 26.1805L30.8451 23.7629Z" fill="#024EB0"/>
<path d="M3.85718 0L13.89 29.5828L11.5414 30.4643L16.7535 33.0411L18.8732 27.7136L16.5848 28.5715L3.85718 0Z" fill="#024EB0"/>
<path d="M72.7348 26.6374H58.2487V15.6493H54.7288V41.0043H58.2487V29.7361H72.7348V41.0043H76.2547V15.6493H72.7348V26.6374Z" fill="#024EB0"/>
<path d="M93.0412 25.1368L92.2553 24.8066C91.5343 24.4182 90.7784 24.0955 89.9971 23.8425C89.2624 23.5807 88.4874 23.444 87.7056 23.4386C86.5033 23.4139 85.3095 23.6413 84.2044 24.1055C83.0993 24.5698 82.1083 25.2602 81.2982 26.1303C79.6782 27.861 78.8562 30.1105 78.8562 32.8111C78.8562 35.264 79.6692 37.319 81.265 38.9081C82.8609 40.4972 84.9084 41.3168 87.3925 41.3168C88.3903 41.318 89.3835 41.1831 90.3433 40.9158C90.6809 40.814 91.0092 40.6848 91.3249 40.5296L91.6712 40.3645V41.0721H95.0134L94.9773 26.1215L93.0412 25.1368ZM91.6983 27.8875V36.9445C91.4875 37.0654 91.2677 37.2069 91.0419 37.3632C90.781 37.5426 90.4963 37.6864 90.1958 37.7907C89.3861 38.0747 88.5292 38.2077 87.6695 38.1828C86.9122 38.1979 86.1589 38.0708 85.4504 37.8084C84.8104 37.5536 84.2304 37.1734 83.7461 36.691C82.7826 35.7476 82.2918 34.4297 82.2918 32.7757C82.2918 31.0068 82.8549 29.5326 83.972 28.3976C84.4876 27.8308 85.1248 27.3826 85.8379 27.085C86.551 26.7873 87.3224 26.6476 88.0971 26.6758C88.9108 26.6667 89.7179 26.8191 90.4698 27.1239C90.741 27.2389 90.9977 27.3843 91.2346 27.5573C91.4152 27.6841 91.5658 27.7932 91.6983 27.8875Z" fill="#024EB0"/>
<path d="M104.965 23.4386C104.6 23.4396 104.235 23.4702 103.875 23.53C103.498 23.5922 103.127 23.6829 102.764 23.8012C102.372 23.9127 101.986 24.0445 101.608 24.1963C101.261 24.3378 100.954 24.4675 100.704 24.5825L97.8589 26.2394V49H101.201V40.5414L101.593 40.6977C101.9 40.8213 102.217 40.9199 102.541 40.9925C103.454 41.2199 104.393 41.3299 105.335 41.3198C107.684 41.3198 109.725 40.3999 111.4 38.5926C113.036 36.9171 113.938 34.6813 113.914 32.363C113.914 29.7715 113.068 27.6133 111.394 25.9505C109.719 24.2877 107.545 23.4386 104.965 23.4386ZM110.385 32.3954C110.412 33.146 110.287 33.8945 110.018 34.5978C109.749 35.3011 109.34 35.9453 108.816 36.4935C107.816 37.5607 106.489 38.0767 104.76 38.0767C104.338 38.0795 103.916 38.041 103.502 37.9617C103.135 37.8929 102.773 37.8013 102.418 37.6875C102.117 37.5725 101.852 37.4693 101.593 37.3927C101.455 37.3492 101.321 37.295 101.192 37.2305V27.6693C101.29 27.6202 101.39 27.5769 101.493 27.5396C101.722 27.4571 101.984 27.3568 102.255 27.2448C102.586 27.1298 102.948 27.003 103.339 26.8615C103.726 26.7318 104.134 26.6689 104.543 26.6758C105.321 26.653 106.094 26.79 106.814 27.078C107.534 27.3659 108.184 27.7983 108.723 28.3474C109.837 29.397 110.379 30.7208 110.379 32.3954H110.385Z" fill="#024EB0"/>
<path d="M121.947 23.4386C121.582 23.4396 121.217 23.4702 120.857 23.53C120.48 23.5922 120.109 23.6829 119.746 23.8012C119.354 23.9127 118.968 24.0445 118.59 24.1963C118.244 24.3378 117.937 24.4675 117.687 24.5825L114.82 26.2394V49H118.162V40.5414L118.554 40.6977C118.861 40.8213 119.178 40.9199 119.502 40.9925C120.415 41.2199 121.355 41.3299 122.296 41.3198C124.645 41.3198 126.687 40.3999 128.361 38.5926C129.997 36.9171 130.9 34.6813 130.875 32.363C130.875 29.7715 130.026 27.6133 128.352 25.9505C126.678 24.2877 124.519 23.4386 121.947 23.4386ZM127.367 32.3954C127.394 33.1459 127.269 33.8942 127 34.5974C126.73 35.3006 126.322 35.9449 125.798 36.4935C124.796 37.5607 123.471 38.0767 121.739 38.0767C121.317 38.0792 120.895 38.0407 120.481 37.9617C120.115 37.8925 119.754 37.801 119.4 37.6875C119.099 37.5725 118.834 37.4693 118.575 37.3927C118.437 37.3497 118.303 37.2955 118.174 37.2305V27.6693C118.272 27.6202 118.373 27.5769 118.475 27.5396C118.704 27.4571 118.963 27.3568 119.234 27.2448C119.568 27.1298 119.93 27.003 120.321 26.8615C120.709 26.7315 121.116 26.6687 121.526 26.6758C122.303 26.653 123.076 26.79 123.796 27.078C124.516 27.3659 125.166 27.7983 125.705 28.3474C126.813 29.397 127.367 30.7208 127.367 32.3954Z" fill="#024EB0"/>
<path d="M132.043 20.1424L135.385 20.0982V15.6493H132.043V20.1424Z" fill="#024EB0"/>
<path d="M135.385 23.7511H132.043V41.0043H135.385V23.7511Z" fill="#024EB0"/>
<path d="M149.631 32.587H153V32.2215C153.026 30.982 152.838 29.7472 152.446 28.5686C152.09 27.5658 151.533 26.6427 150.808 25.8532C150.091 25.0679 149.207 24.4451 148.219 24.0281C147.231 23.6111 146.162 23.4099 145.087 23.4386C143.97 23.4141 142.862 23.634 141.843 24.0823C140.824 24.5307 139.92 25.1961 139.197 26.0301C137.692 27.6664 136.936 29.7272 136.936 32.1507C136.936 34.7628 137.782 36.977 139.456 38.7371C141.155 40.4471 143.338 41.3168 145.939 41.3168C147.29 41.3257 148.627 41.0418 149.853 40.4854C150.345 40.2823 150.819 40.0408 151.272 39.7631C151.69 39.5066 152.112 39.2177 152.524 38.911L152.672 38.802V34.6744L152.057 35.2552C151.579 35.6902 151.077 36.0987 150.552 36.4787C150.11 36.789 149.648 37.0716 149.17 37.3249C148.225 37.8336 147.162 38.0927 146.084 38.0767C145.307 38.0895 144.537 37.946 143.819 37.6551C143.138 37.3636 142.516 36.9541 141.983 36.4463C140.982 35.4991 140.397 34.2083 140.351 32.8465V32.587H149.631ZM141.161 29.1346C141.299 28.8181 141.479 28.5207 141.696 28.2502C142.099 27.7379 142.621 27.3276 143.219 27.0537C143.816 26.7798 144.473 26.6502 145.132 26.6758C145.69 26.6632 146.244 26.7543 146.767 26.9441C147.198 27.1121 147.59 27.3627 147.92 27.6811C148.236 27.999 148.487 28.3733 148.658 28.7838C148.803 29.1137 148.923 29.4537 149.016 29.8009H140.887C140.971 29.5798 141.061 29.3557 141.161 29.1346Z" fill="#024EB0"/>
</g>
<defs>
<radialGradient id="paint0_radial_972_132" cx="0" cy="0" r="1" gradientUnits="userSpaceOnUse" gradientTransform="translate(18.0152 25.4877) scale(267.13 261.56)">
<stop stop-color="#3ACFEF"/>
<stop offset="1" stop-color="#024EB0"/>
</radialGradient>
<clipPath id="clip0_972_132">
<rect width="153" height="49" fill="white"/>
</clipPath>
</defs>
</svg>
